#!OML:ASF X:\für Bonn\!DataBase\2005_08_10_Bjorn_Final\c3d\bjorn.ASF
:FULLY-SPECIFIED
:DEGREES
31
root 0.336406 18.5932 2.81577 -179.331 -3.31288 179.483
lowerback 4.11639 1.03678 2.36939
upperback 7.9699 0.712349 -1.43927
thorax 6.04326 0.231502 -2.8509
lowerneck -19.3949 -0.945574 4.49285
upperneck 11.9554 -2.13478 -2.10543
head 6.73743 -1.00923 -1.64844
rclavicle -1.92324e-014 -9.93923e-016
rhumerus 79.2614 0.760806 -73.9749
rradius 8.4718
rwrist 44.014
rhand -9.53588 6.43125
rfingers 7.12502
rthumb 16.4305 -22.8929
lclavicle -1.92324e-014 -9.93923e-016
lhumerus 82.7378 -10.5018 58.2476
lradius 9.81925
lwrist -43.7181
lhand -14.3905 -7.45997
lfingers 7.12502
lthumb 11.7525 22.1903
rfemur -17.9411 -10.1965 16.7943
rtibia 43.8855
rfoot -24.4536 11.5689
rtoes -16.8746
lfemur -17.5973 1.24624 -18.9452
ltibia 44.6407
lfoot -20.8228 -4.41859
ltoes -11.1219
32
root 0.33906 18.5152 2.84317 -179.329 -3.19969 179.538
lowerback 4.50978 1.06595 2.39905
upperback 8.03554 0.732554 -1.41631
thorax 5.89226 0.230651 -2.84672
lowerneck -19.4766 -0.953383 4.47608
upperneck 11.741 -2.1383 -2.1481
head 6.68051 -1.01896 -1.65833
rclavicle 1.3418e-015 -2.78299e-015
rhumerus 79.392 0.636156 -74.2074
rradius 8.44232
rwrist 44.2933
rhand -9.68311 6.61673
rfingers 7.12502
rthumb 16.2888 -22.7191
lclavicle 1.3418e-015 -2.78299e-015
lhumerus 82.9113 -10.4158 58.1594
lradius 9.75617
lwrist -43.5848
lhand -14.3399 -7.55603
lfingers 7.12502
lthumb 11.8013 22.0915
rfemur -18.841 -10.1432 16.8896
rtibia 45.317
rfoot -24.9281 11.592
rtoes -16.8847
lfemur -18.6731 1.42329 -18.9583
ltibia 46.4836
lfoot -21.316 -3.99647
ltoes -12.1191
33
root 0.340706 18.429 2.87222 -179.445 -3.09784 179.649
lowerback 5.015 1.09516 2.52708
upperback 8.16011 0.742002 -1.40472
thorax 5.7444 0.225264 -2.91159
lowerneck -19.6277 -0.963668 4.45429
upperneck 11.5367 -2.15949 -2.12129
head 6.63858 -1.03152 -1.64767
rclavicle 8.00108e-015 -4.57205e-015
rhumerus 79.5663 0.478321 -74.4761
rradius 8.45324
rwrist 44.5489
rhand -9.75889 6.79405
rfingers 7.12502
rthumb 16.2158 -22.5477
lclavicle 8.00108e-015 -4.57205e-015
lhumerus 83.1318 -10.2931 58.0184
lradius 9.72731
lwrist -43.4598
lhand -14.3153 -7.64653
lfingers 7.12502
lthumb 11.8251 21.9996
rfemur -19.6357 -10.1222 17.023
rtibia 46.7934
rfoot -25.4453 11.5556
rtoes -17.0431
lfemur -19.6664 1.62852 -18.9119
ltibia 48.3941
lfoot -21.8111 -3.55861
ltoes -13.3459
34
root 0.342209 18.3381 2.90195 -179.631 -2.97744 179.818
lowerback 5.58227 1.12508 2.68859
upperback 8.33496 0.741607 -1.34808
thorax 5.61613 0.211269 -2.94936
lowerneck -19.8133 -0.970684 4.34796
upperneck 11.2547 -2.16091 -2.06689
head 6.57888 -1.03758 -1.61186
rclavicle 6.55989e-015 -3.97569e-016
rhumerus 79.7635 0.359161 -74.7135
rradius 8.56233
rwrist 44.8297
rhand -9.76007 6.94147
rfingers 7.12502
rthumb 16.2147 -22.4004
lclavicle 6.55989e-015 -3.97569e-016
lhumerus 83.3809 -10.1335 57.9171
lradius 9.70728
lwrist -43.3091
lhand -14.3783 -7.65396
lfingers 7.12502
lthumb 11.7643 21.9957
rfemur -20.3802 -10.0997 17.2113
rtibia 48.3117
rfoot -26.0175 11.4401
rtoes -17.5508
lfemur -20.6069 1.84016 -18.7951
ltibia 50.3408
lfoot -22.2824 -3.17181
ltoes -14.3813
35
root 0.343141 18.2412 2.93323 -179.811 -2.85198 179.948
lowerback 6.18879 1.16224 2.84341
upperback 8.48407 0.756139 -1.33289
thorax 5.44121 0.204985 -3.02704
lowerneck -19.9911 -0.970702 4.32098
upperneck 10.9931 -2.17141 -2.03373
head 6.52309 -1.04648 -1.59694
rclavicle 5.01931e-015 -7.95139e-016
rhumerus 79.8774 0.219812 -74.991
rradius 8.77264
rwrist 45.0614
rhand -9.76577 7.09812
rfingers 7.12502
rthumb 16.2092 -22.2442
lclavicle 5.01931e-015 -7.95139e-016
lhumerus 83.5806 -10.0213 57.7785
lradius 9.78264
lwrist -43.1521
lhand -14.4005 -7.63343
lfingers 7.12502
lthumb 11.7429 22.0174
rfemur -21.1496 -10.0931 17.3507
rtibia 49.8745
rfoot -26.5876 11.353
rtoes -18.014
lfemur -21.576 2.11156 -18.7258
ltibia 52.3269
lfoot -22.7109 -2.81388
ltoes -15.2096
36
root 0.344372 18.1403 2.9648 -179.986 -2.71333 180.042
lowerback 6.8342 1.19235 2.9162
upperback 8.58367 0.767126 -1.28546
thorax 5.18906 0.191509 -3.02483
lowerneck -19.9911 -0.989133 4.17383
upperneck 10.653 -2.17479 -1.94623
head 6.4153 -1.05303 -1.54158
rclavicle -1.41634e-014 5.96354e-015
rhumerus 79.8989 0.175178 -75.2218
rradius 9.03902
rwrist 45.3014
rhand -9.72473 7.25939
rfingers 7.12502
rthumb 16.2487 -22.0797
lclavicle -1.41634e-014 5.96354e-015
lhumerus 83.6675 -9.91774 57.7134
lradius 9.87881
lwrist -42.9713
lhand -14.534 -7.63762
lfingers 7.12502
lthumb 11.6142 22.0205
rfemur -21.9643 -10.0594 17.4539
rtibia 51.4984
rfoot -27.1912 11.2366
rtoes -18.5343
lfemur -22.5564 2.39907 -18.6901
ltibia 54.3321
lfoot -23.1103 -2.52455
ltoes -15.7445
37
root 0.345183 18.0334 2.99927 -180.124 -2.62564 180.132
lowerback 7.46987 1.21208 3.02419
upperback 8.6816 0.767031 -1.26942
thorax 4.94318 0.175426 -3.07516
lowerneck -20.0302 -1.00583 4.02709
upperneck 10.3042 -2.19282 -1.76997
head 6.31187 -1.05961 -1.45972
rclavicle 9.44227e-016 2.98177e-015
rhumerus 79.931 0.0679639 -75.4863
rradius 9.35884
rwrist 45.4348
rhand -9.64037 7.37409
rfingers 7.12502
rthumb 16.3299 -21.9584
lclavicle 9.44227e-016 2.98177e-015
lhumerus 83.8073 -9.83225 57.6029
lradius 9.96217
lwrist -42.8042
lhand -14.696 -7.64771
lfingers 7.12502
lthumb 11.4579 22.0192
rfemur -22.8534 -10.0615 17.5549
rtibia 53.1875
rfoot -27.8 11.1736
rtoes -18.8616
lfemur -23.6298 2.6556 -18.6566
ltibia 56.3771
lfoot -23.4099 -2.29553
ltoes -16.275
38
root 0.347397 17.9202 3.03528 -180.25 -2.54378 180.172
lowerback 8.12107 1.23952 3.08821
upperback 8.76118 0.779665 -1.2799
thorax 4.67073 0.163893 -3.12903
lowerneck -20.0387 -1.04069 3.88413
upperneck 9.96076 -2.2364 -1.58304
head 6.20484 -1.07764 -1.37778
rclavicle -3.97569e-015 -1.78906e-015
rhumerus 79.9337 -0.0672522 -75.7661
rradius 9.69197
rwrist 45.6115
rhand -9.5256 7.46305
rfingers 7.12502
rthumb 16.4404 -21.8603
lclavicle -3.97569e-015 -1.78906e-015
lhumerus 83.9363 -9.76296 57.4718
lradius 10.0442
lwrist -42.7058
lhand -14.9271 -7.7368
lfingers 7.12502
lthumb 11.235 21.9423
rfemur -23.7937 -10.0307 17.6035
rtibia 54.9503
rfoot -28.436 11.1639
rtoes -18.9637
lfemur -24.7366 2.90798 -18.6657
ltibia 58.4558
lfoot -23.6699 -2.12433
ltoes -16.6658
39
root 0.349489 17.7997 3.07237 -180.358 -2.50224 180.211
lowerback 8.7733 1.24269 3.11568
upperback 8.82439 0.760684 -1.25177
thorax 4.37724 0.133618 -3.12063
lowerneck -20.1224 -1.06514 3.73361
upperneck 9.73446 -2.2545 -1.47198
head 6.1477 -1.08836 -1.31859
rclavicle -1.05853e-014 2.38542e-015
rhumerus 79.9577 -0.13682 -76.0007
rradius 9.99663
rwrist 45.7496
rhand -9.45046 7.56761
rfingers 7.12502
rthumb 16.5128 -21.7497
lclavicle -1.05853e-014 2.38542e-015
lhumerus 83.9677 -9.66327 57.6012
lradius 10.1448
lwrist -42.8004
lhand -15.1461 -7.8247
lfingers 7.12502
lthumb 11.0238 21.8658
rfemur -24.7904 -10.0267 17.6477
rtibia 56.7895
rfoot -29.1178 11.1867
rtoes -18.9463
lfemur -25.9025 3.11563 -18.6637
ltibia 60.5852
lfoot -23.9377 -1.97628
ltoes -17.2149
40
root 0.351935 17.6723 3.10999 -180.466 -2.47312 180.233
lowerback 9.42023 1.24664 3.15199
upperback 8.90407 0.739985 -1.26287
thorax 4.10717 0.103059 -3.15809
lowerneck -20.2474 -1.07745 3.66277
upperneck 9.50573 -2.27604 -1.39103
head 6.09504 -1.10085 -1.28274
rclavicle -2.52457e-014 3.37934e-015
rhumerus 80.0138 -0.246289 -76.2883
rradius 10.3033
rwrist 45.8561
rhand -9.2831 7.63342
rfingers 7.12502
rthumb 16.6739 -21.6704
lclavicle -2.52457e-014 3.37934e-015
lhumerus 84.0676 -9.57524 57.5005
lradius 10.2388
lwrist -42.7515
lhand -15.4842 -7.92219
lfingers 7.12502
lthumb 10.6977 21.7855
rfemur -25.8189 -9.99421 17.6656
rtibia 58.6991
rfoot -29.8249 11.2545
rtoes -18.8095
lfemur -27.1067 3.33317 -18.6681
ltibia 62.7628
lfoot -24.1508 -1.84162
ltoes -18.141
